<svg xmlns="http://www.w3.org/2000/svg" version="1.1" xmlns:xlink="http://www.w3.org/1999/xlink" xmlns:svgjs="http://svgjs.com/svgjs" width="1440" height="560" preserveAspectRatio="none" viewBox="0 0 1440 560"><g mask="url(&quot;#SvgjsMask1003&quot;)" fill="none"><rect width="1440" height="560" x="0" y="0" fill="rgba(34, 48, 60, 1)"></rect><path d="M-51.5 190.55C100.68 197.68 200.76 451.2 495.4 459.35 790.04 467.5 899.04 628.69 1042.3 630.68" stroke="rgba(194, 140, 51, 0.58)" stroke-width="2"></path><path d="M-174.5 142.81C7.64 144.48 244.9 325.51 528.78 333.21 812.66 340.91 775.73 554.11 880.42 564.12" stroke="rgba(194, 140, 51, 0.58)" stroke-width="2"></path><path d="M-85.77 439.76C15.01 440.03 112.73 509.76 311.23 509.76 509.73 509.76 506.87 439.28 708.22 439.76 909.57 440.24 993.67 638.93 1105.22 644.87" stroke="rgba(194, 140, 51, 0.58)" stroke-width="2"></path><path d="M-136.75 291.28C32.82 289.96 257.32 117.28 520.42 123.28 783.53 129.28 709.98 586.72 849.01 660.67" stroke="rgba(194, 140, 51, 0.58)" stroke-width="2"></path><path d="M-63.71 225.49C113.96 227.25 347 409.69 621.04 415.89 895.09 422.09 865.34 602.69 963.42 609.22" stroke="rgba(194, 140, 51, 0.58)" stroke-width="2"></path></g><defs><mask id="SvgjsMask1003"><rect width="1440" height="560" fill="#ffffff"></rect></mask></defs></svg>